{"glyphs":{":":{"x_min":0,"x_max":250,"ha":250,"o":"m 48 487 q 48 519 70 541 q 93 564 125 564 q 158 564 180 542 q 202 520 202 487 q 202 455 179 433 q 156 410 125 410 q 95 410 71 433 q 48 457 48 487 z m 48 65 q 48 97 70 119 q 93 142 125 142 q 158 142 180 120 q 202 98 202 65 q 202 33 179 10 q 156 -12 125 -12 q 95 -12 71 11 q 48 35 48 65 z"},"$":{"x_min":0,"x_max":500,"ha":500,"o":"m 52 174 l 173 207 q 179 162 198 139 q 218 115 249 115 q 276 115 292 134 q 309 153 309 185 q 309 215 292 241 q 274 268 212 320 q 128 391 97 440 q 67 489 67 547 q 67 620 108 669 q 149 718 220 728 l 220 838 l 289 838 l 289 728 q 350 719 388 680 q 426 640 438 574 l 328 535 q 323 577 305 600 q 287 622 259 622 q 233 622 217 604 q 200 586 200 558 q 200 508 289 435 q 311 417 323 406 q 387 350 413 303 q 439 257 439 200 q 439 121 399 69 q 359 17 289 4 l 289 -112 l 220 -112 l 220 1 q 149 8 106 52 q 64 96 52 174 z"},"?":{"x_min":0,"x_max":433,"ha":433,"o":"m 98 65 q 98 97 121 119 q 143 142 175 142 q 208 142 229 120 q 251 98 251 65 q 251 33 229 10 q 206 -12 175 -12 q 145 -12 121 11 q 98 35 98 65 z m 111 223 q 112 269 128 314 q 144 358 176 406 q 182 415 193 431 q 252 515 252 588 q 252 623 239 641 q 226 660 202 660 q 172 660 159 630 q 145 601 144 534 l 19 534 l 19 547 q 19 661 69 720 q 118 779 213 779 q 296 779 345 728 q 393 678 393 591 q 393 541 375 493 q 357 446 313 382 q 274 327 260 292 q 245 258 241 223 z"},"<":{"x_min":0,"x_max":833,"ha":833,"o":"m 704 583 l 704 476 l 268 298 l 704 120 l 704 13 l 129 250 l 129 347 z"},"'":{"x_min":0,"x_max":172,"ha":172,"o":"m 39 702 l 133 702 l 133 429 l 39 429 z"},"=":{"x_min":0,"x_max":833,"ha":833,"o":"m 124 242 l 709 242 l 709 145 l 124 145 z m 124 452 l 709 452 l 709 355 l 124 355 z"},"a":{"x_min":0,"x_max":492,"ha":492,"o":"m 293 0 l 293 108 q 275 51 247 23 q 218 -6 180 -6 q 114 -6 79 69 q 44 143 44 284 q 44 431 76 503 q 109 575 175 575 q 218 575 247 547 q 275 519 293 458 l 293 564 l 430 564 l 430 0 z m 300 287 q 300 367 285 408 q 270 450 241 450 q 211 450 198 411 q 184 371 184 281 q 184 197 198 157 q 211 117 240 117 q 271 117 285 159 q 300 201 300 287 z"},"L":{"x_min":0,"x_max":398,"ha":398,"o":"m 64 0 l 64 764 l 212 764 l 212 123 l 385 123 l 385 0 z"},"3":{"x_min":0,"x_max":500,"ha":500,"o":"m 36 240 l 175 240 l 175 228 q 175 169 190 139 q 205 110 234 110 q 265 110 282 144 q 299 179 299 242 q 299 309 283 340 q 268 372 235 372 q 223 372 209 366 q 196 360 181 348 l 121 413 l 248 602 l 66 602 l 66 729 l 456 729 l 289 473 q 291 473 295 474 q 312 477 318 477 q 372 477 407 416 q 442 354 442 257 q 442 129 385 58 q 329 -12 226 -12 q 135 -12 85 48 q 35 107 35 216 q 35 220 36 228 q 36 236 36 240 z"},";":{"x_min":0,"x_max":250,"ha":250,"o":"m 5 -100 l 72 144 l 206 144 l 119 -100 z m 59 487 q 59 519 82 541 q 104 564 136 564 q 168 564 191 542 q 213 520 213 487 q 213 455 190 433 q 167 410 136 410 q 105 410 82 433 q 59 457 59 487 z"},"J":{"x_min":0,"x_max":384,"ha":384,"o":"m -14 54 l 67 159 q 82 133 94 122 q 107 112 122 112 q 147 112 159 141 q 171 170 171 231 l 171 764 l 320 764 l 320 205 q 320 100 274 42 q 228 -15 142 -15 q 91 -15 53 2 q 14 19 -14 54 z"},"V":{"x_min":0,"x_max":456,"ha":456,"o":"m 308 0 l 152 0 l 16 764 l 170 764 l 199 501 q 209 411 217 327 q 224 243 228 160 l 237 160 q 245 277 252 361 q 260 445 267 496 l 305 764 l 448 764 z"},"\"":{"x_min":0,"x_max":331,"ha":331,"o":"m 198 702 l 292 702 l 292 429 l 198 429 z m 39 702 l 133 702 l 133 429 l 39 429 z"},"7":{"x_min":0,"x_max":500,"ha":500,"o":"m 91 0 l 264 595 l 71 595 l 71 729 l 447 729 l 241 0 z"},"S":{"x_min":0,"x_max":459,"ha":459,"o":"m 15 175 l 146 210 q 152 162 173 136 q 195 110 228 110 q 257 110 276 131 q 294 152 294 186 q 294 218 275 247 q 256 276 189 333 q 96 412 63 465 q 31 519 31 580 q 31 669 86 724 q 141 779 230 779 q 315 779 367 736 q 419 693 435 610 l 314 568 q 309 614 290 638 q 271 662 240 662 q 211 662 194 643 q 176 624 176 593 q 176 538 273 458 q 296 438 309 428 q 379 367 407 316 q 436 265 436 203 q 436 103 379 44 q 321 -15 223 -15 q 137 -15 82 35 q 28 85 15 175 z"},"}":{"x_min":0,"x_max":500,"ha":500,"o":"m 70 721 l 103 721 q 157 721 189 715 q 222 709 244 697 q 272 681 283 652 q 295 623 295 555 l 295 432 q 295 365 320 337 q 345 309 404 309 q 407 309 414 310 q 420 310 424 310 l 424 208 l 406 208 q 345 208 320 181 q 295 153 295 86 l 295 -37 q 295 -107 283 -135 q 272 -164 244 -179 q 221 -191 188 -197 q 156 -203 107 -203 q 101 -203 89 -203 q 77 -202 70 -202 l 70 -100 q 74 -100 82 -101 q 90 -101 93 -101 q 142 -101 159 -82 q 177 -63 177 -4 l 177 113 q 177 186 199 216 q 221 246 278 259 q 221 272 199 302 q 177 333 177 405 l 177 523 q 177 583 159 601 q 142 620 93 620 q 90 620 82 620 q 74 619 70 619 z"},"Z":{"x_min":0,"x_max":435,"ha":435,"o":"m 13 0 l 234 644 l 30 644 l 30 764 l 421 764 l 204 120 l 390 120 l 390 0 z"},"x":{"x_min":0,"x_max":435,"ha":435,"o":"m 0 0 l 143 291 l 11 564 l 157 564 l 189 483 q 197 461 206 428 q 215 396 223 356 q 230 395 239 426 q 248 458 255 476 l 291 564 l 435 564 l 300 295 l 441 0 l 295 0 l 255 106 q 244 134 236 167 q 229 201 223 242 q 215 195 207 162 q 198 129 190 109 l 145 0 z"},")":{"x_min":0,"x_max":340,"ha":340,"o":"m 51 751 l 134 834 q 205 736 241 613 q 277 490 277 348 q 277 206 241 82 q 205 -41 134 -139 l 51 -55 q 101 25 127 128 q 153 230 153 348 q 153 464 127 567 q 101 670 51 751 z"},"&":{"x_min":0,"x_max":569,"ha":569,"o":"m 277 467 q 307 497 321 520 q 334 543 334 565 q 334 586 320 601 q 306 615 286 615 q 264 615 250 599 q 235 583 235 558 q 235 539 245 517 q 255 496 277 467 z m 337 144 l 238 316 q 205 294 189 268 q 174 242 174 207 q 174 167 200 138 q 226 110 263 110 q 281 110 298 118 q 316 126 337 144 z m 420 0 l 391 48 q 354 20 316 4 q 277 -11 242 -11 q 155 -11 100 46 q 45 104 45 192 q 45 257 80 311 q 115 365 183 404 q 151 456 137 494 q 123 533 123 566 q 123 628 170 670 q 217 713 286 713 q 357 713 401 671 q 445 628 445 559 q 445 513 415 468 q 384 422 328 384 l 425 216 q 440 231 454 248 q 467 265 479 283 l 560 201 q 544 179 525 158 q 505 137 482 117 l 549 0 z"},"_":{"x_min":0,"x_max":500,"ha":500,"o":"m 0 -136 l 500 -136 l 500 -236 l 0 -236 z"},"v":{"x_min":0,"x_max":422,"ha":422,"o":"m 143 0 l 2 564 l 148 564 l 179 374 q 187 321 195 258 q 203 195 210 126 l 220 126 q 229 208 237 270 q 245 331 251 359 l 291 564 l 432 564 l 284 0 z"},"O":{"x_min":0,"x_max":535,"ha":535,"o":"m 195 386 q 195 229 211 170 q 228 111 267 111 q 307 111 323 170 q 340 229 340 386 q 340 541 323 601 q 307 662 267 662 q 227 662 211 603 q 195 544 195 386 z m 493 367 q 493 175 437 80 q 380 -15 267 -15 q 152 -15 97 82 q 42 179 42 382 q 42 585 97 682 q 152 779 267 779 q 385 779 439 681 q 493 583 493 367 z"},"(":{"x_min":0,"x_max":340,"ha":340,"o":"m 289 751 q 239 671 213 569 q 187 466 187 348 q 187 230 213 128 q 239 25 289 -55 l 206 -139 q 136 -42 99 82 q 63 205 63 348 q 63 491 99 614 q 136 737 206 834 z"},"C":{"x_min":0,"x_max":514,"ha":514,"o":"m 491 205 q 475 98 417 41 q 360 -15 267 -15 q 153 -15 97 82 q 42 178 42 378 q 42 585 100 682 q 158 780 281 780 q 367 780 419 731 q 471 683 490 584 l 353 538 q 348 600 330 628 q 312 656 278 656 q 232 656 214 596 q 195 537 195 378 q 195 225 213 167 q 231 110 275 110 q 308 110 327 145 q 347 181 355 252 z"},"W":{"x_min":0,"x_max":742,"ha":742,"o":"m 147 0 l 17 764 l 169 764 l 200 481 q 206 424 214 332 q 222 240 230 131 l 240 131 q 249 257 258 360 q 266 462 271 500 l 308 764 l 451 764 l 486 464 q 494 395 501 311 q 508 226 514 131 l 524 131 q 530 233 539 327 q 547 422 557 505 l 590 764 l 733 764 l 599 0 l 447 0 l 409 313 q 396 414 390 487 q 384 561 381 630 l 371 630 q 361 524 352 439 q 343 354 337 311 l 299 0 z"},"A":{"x_min":0,"x_max":528,"ha":528,"o":"m 203 240 l 311 240 l 276 481 q 272 510 268 555 q 265 599 262 654 l 253 654 q 248 589 244 540 q 239 491 237 478 z m 8 0 l 181 764 l 341 764 l 510 0 l 354 0 l 333 124 l 181 124 l 156 0 z"},"f":{"x_min":0,"x_max":296,"ha":296,"o":"m 84 0 l 84 459 l 27 459 l 27 564 l 84 564 l 84 574 q 84 682 120 727 q 157 771 244 771 l 281 771 l 281 648 q 247 647 234 632 q 220 618 220 582 q 220 579 221 573 q 221 567 221 564 l 281 564 l 281 459 l 221 459 l 221 0 z"},"Q":{"x_min":0,"x_max":535,"ha":535,"o":"m 318 -9 q 307 -12 295 -14 q 283 -15 267 -15 q 152 -15 97 82 q 42 179 42 382 q 42 585 97 682 q 152 779 267 779 q 383 779 438 682 q 493 585 493 382 q 493 266 477 188 q 460 111 426 65 l 487 -29 l 383 -103 z m 195 386 q 195 229 211 170 q 228 111 267 111 q 307 111 323 170 q 340 229 340 386 q 340 541 323 601 q 307 662 267 662 q 227 662 211 603 q 195 544 195 386 z"},"w":{"x_min":0,"x_max":676,"ha":676,"o":"m 145 0 l 11 564 l 151 564 l 184 347 q 195 273 201 222 q 207 170 210 121 l 218 121 q 225 203 233 271 q 241 339 250 392 l 280 564 l 412 564 l 435 392 q 443 332 449 264 q 455 196 460 121 l 469 121 q 475 203 483 267 q 491 331 499 370 l 541 564 l 675 564 l 524 0 l 404 0 l 367 280 q 361 330 357 371 q 353 412 349 455 l 339 455 q 329 378 323 335 q 316 291 315 281 l 266 0 z"},"-":{"x_min":0,"x_max":324,"ha":324,"o":"m 49 232 l 49 354 l 275 354 l 275 232 z"},"E":{"x_min":0,"x_max":440,"ha":440,"o":"m 64 0 l 64 764 l 385 764 l 385 644 l 212 644 l 212 461 l 385 461 l 385 343 l 212 343 l 212 123 l 385 123 l 385 0 z"},"s":{"x_min":0,"x_max":417,"ha":417,"o":"m 34 94 l 133 166 q 146 134 165 116 q 184 98 205 98 q 225 98 240 113 q 254 127 254 148 q 254 184 177 233 q 166 240 160 244 q 96 285 70 324 q 44 363 44 414 q 44 484 94 531 q 144 577 219 577 q 274 577 317 549 q 360 521 381 471 l 290 410 q 283 438 263 455 q 244 472 221 472 q 198 472 184 459 q 170 446 170 426 q 170 392 241 348 q 270 331 285 320 q 338 284 361 246 q 385 208 385 160 q 385 83 336 35 q 287 -12 205 -12 q 148 -12 104 15 q 60 43 34 94 z"},">":{"x_min":0,"x_max":833,"ha":833,"o":"m 129 583 l 704 347 l 704 250 l 129 13 l 129 120 l 566 298 l 129 476 z"},"l":{"x_min":0,"x_max":264,"ha":264,"o":"m 64 0 l 64 764 l 200 764 l 200 0 z"},"8":{"x_min":0,"x_max":500,"ha":500,"o":"m 198 545 q 198 496 211 473 q 224 449 250 449 q 277 449 289 473 q 302 497 302 548 q 302 592 289 614 q 276 636 250 636 q 224 636 211 613 q 198 590 198 545 z m 311 234 q 311 290 295 319 q 280 348 250 348 q 220 348 205 319 q 189 290 189 233 q 189 171 204 140 q 220 109 250 109 q 280 109 296 140 q 311 172 311 234 z m 160 413 q 108 429 84 463 q 60 497 60 554 q 60 642 110 692 q 160 741 250 741 q 339 741 390 691 q 440 642 440 554 q 440 497 416 463 q 392 429 340 413 q 397 398 426 350 q 455 302 455 222 q 455 111 401 50 q 347 -12 250 -12 q 153 -12 99 50 q 45 111 45 222 q 45 303 74 350 q 103 398 160 413 z"},"\\":{"x_min":0,"x_max":278,"ha":278,"o":"m 327 -93 l 244 -93 l -24 779 l 58 779 z"},"e":{"x_min":0,"x_max":465,"ha":465,"o":"m 169 345 l 303 345 q 302 411 286 442 q 269 472 234 472 q 202 472 186 440 q 170 409 169 345 z m 422 155 q 404 72 357 29 q 310 -13 235 -13 q 132 -13 83 57 q 35 127 35 277 q 35 431 84 503 q 132 575 236 575 q 334 575 384 509 q 434 443 434 314 l 434 256 l 169 256 l 169 248 q 169 168 185 133 q 200 97 235 97 q 260 97 276 119 q 292 142 297 184 z"},"b":{"x_min":0,"x_max":492,"ha":492,"o":"m 192 287 q 192 201 207 159 q 222 117 252 117 q 280 117 293 157 q 307 198 307 281 q 307 372 294 411 q 281 450 251 450 q 222 450 207 408 q 192 367 192 287 z m 199 0 l 62 0 l 62 764 l 199 764 l 199 458 q 217 519 245 547 q 274 575 317 575 q 383 575 416 503 q 448 431 448 284 q 448 143 413 69 q 378 -6 312 -6 q 274 -6 246 23 q 217 51 199 108 z"},"%":{"x_min":0,"x_max":734,"ha":734,"o":"m 564 64 q 590 64 602 89 q 614 113 614 170 q 614 226 602 250 q 590 275 564 275 q 538 275 527 250 q 515 226 515 170 q 515 114 527 89 q 539 64 564 64 z m 169 453 q 195 453 207 477 q 218 501 218 558 q 218 614 206 639 q 195 664 169 664 q 143 664 132 639 q 120 614 120 558 q 120 503 132 478 q 143 453 169 453 z m 18 558 q 18 647 57 694 q 95 741 169 741 q 243 741 281 694 q 320 647 320 558 q 320 470 281 424 q 242 377 169 377 q 95 377 57 423 q 18 470 18 558 z m 414 170 q 414 259 452 306 q 491 352 565 352 q 639 352 677 305 q 716 259 716 170 q 716 82 677 35 q 638 -12 565 -12 q 492 -12 453 35 q 414 82 414 170 z m 210 -12 l 124 -12 l 526 741 l 609 741 z"},"m":{"x_min":0,"x_max":718,"ha":718,"o":"m 62 1 l 62 564 l 192 564 l 192 474 q 218 527 249 551 q 280 575 323 575 q 369 575 397 550 q 425 524 428 479 q 448 526 480 551 q 512 575 555 575 q 615 575 639 539 q 664 502 664 405 l 664 1 l 527 1 l 527 354 q 527 413 517 435 q 507 458 483 458 q 457 458 444 433 q 431 409 431 357 l 431 1 l 295 1 l 295 354 q 295 413 285 435 q 275 458 251 458 q 225 458 212 433 q 199 409 199 357 l 199 1 z"},"#":{"x_min":0,"x_max":769,"ha":769,"o":"m 346 414 l 303 295 l 426 295 l 468 414 z m 346 715 l 454 715 l 383 512 l 501 512 l 573 715 l 681 715 l 609 512 l 747 512 l 711 414 l 574 414 l 533 296 l 675 296 l 640 198 l 498 198 l 426 -5 l 318 -5 l 390 198 l 271 198 l 198 -5 l 91 -5 l 162 198 l 22 198 l 59 296 l 197 296 l 239 414 l 93 414 l 129 512 l 274 512 z"},",":{"x_min":0,"x_max":250,"ha":250,"o":"m 5 -100 l 72 144 l 206 144 l 119 -100 z"},"n":{"x_min":0,"x_max":490,"ha":490,"o":"m 62 1 l 62 564 l 192 564 l 192 474 q 216 525 249 550 q 283 575 327 575 q 387 575 411 539 q 436 502 436 405 l 436 1 l 299 1 l 299 354 q 299 416 288 437 q 278 459 251 459 q 225 459 212 433 q 199 408 199 357 l 199 1 z"},"h":{"x_min":0,"x_max":490,"ha":490,"o":"m 62 1 l 62 764 l 199 764 l 199 485 q 217 526 251 551 q 285 575 327 575 q 387 575 411 539 q 436 502 436 405 l 436 1 l 299 1 l 299 354 q 299 416 288 437 q 278 459 251 459 q 225 459 212 433 q 199 408 199 357 l 199 1 z"},"z":{"x_min":0,"x_max":389,"ha":389,"o":"m 11 0 l 202 455 l 36 455 l 36 564 l 383 564 l 198 116 l 368 116 l 368 0 z"},"B":{"x_min":0,"x_max":542,"ha":542,"o":"m 207 463 q 212 462 218 462 q 223 462 231 462 q 281 462 308 487 q 336 512 336 557 q 336 603 307 628 q 278 653 225 653 q 222 653 216 652 q 210 652 207 652 z m 207 119 q 210 119 216 119 q 222 118 224 118 q 284 118 317 147 q 349 177 349 231 q 349 289 317 319 q 285 349 222 349 l 207 349 z m 64 0 l 64 764 l 255 764 q 367 764 426 717 q 484 669 484 579 q 484 514 449 472 q 415 430 350 416 q 423 396 460 347 q 497 298 497 221 q 497 120 433 60 q 369 0 259 0 z"},"K":{"x_min":0,"x_max":514,"ha":514,"o":"m 64 0 l 64 764 l 212 764 l 212 433 l 219 433 l 357 764 l 509 764 l 354 425 l 512 0 l 354 0 l 219 410 l 212 410 l 212 0 z"},"R":{"x_min":0,"x_max":536,"ha":536,"o":"m 64 0 l 64 764 l 248 764 q 369 764 430 710 q 492 656 492 550 q 492 477 460 427 q 428 376 368 357 l 506 0 l 352 0 l 223 360 l 209 360 l 209 0 z m 209 437 q 212 437 218 437 q 223 436 226 436 q 283 436 314 465 q 345 493 345 545 q 345 597 314 623 q 284 650 224 650 l 209 650 z"},"T":{"x_min":0,"x_max":405,"ha":405,"o":"m 128 0 l 128 636 l 11 636 l 11 764 l 394 764 l 394 636 l 276 636 l 276 0 z"},"P":{"x_min":0,"x_max":493,"ha":493,"o":"m 64 0 l 64 764 l 237 764 q 353 764 409 700 q 466 637 466 508 q 466 387 403 319 q 339 251 226 251 l 212 251 l 212 0 z m 212 651 l 212 369 l 218 369 q 266 369 290 406 q 315 442 315 512 q 315 581 290 615 q 265 649 212 651 z"},"|":{"x_min":0,"x_max":500,"ha":500,"o":"m 200 764 l 301 764 l 301 -236 l 200 -236 z"},"t":{"x_min":0,"x_max":322,"ha":322,"o":"m 226 197 q 226 145 235 131 q 245 116 271 116 q 273 116 279 117 q 284 117 286 117 l 286 0 q 260 -3 240 -4 q 219 -6 207 -6 q 140 -6 115 27 q 89 59 89 160 l 89 459 l 34 459 l 34 564 l 89 564 l 89 684 l 226 684 l 226 564 l 286 564 l 286 459 l 226 459 z"},"M":{"x_min":0,"x_max":698,"ha":698,"o":"m 62 0 l 62 764 l 229 764 l 310 404 q 322 354 329 315 q 335 276 340 238 l 347 238 q 354 286 361 326 q 369 366 376 395 l 469 764 l 633 764 l 633 0 l 496 0 l 498 262 q 499 336 505 425 q 512 514 524 618 l 515 618 q 500 538 489 479 q 478 420 471 393 l 401 97 l 286 97 l 214 410 q 203 455 193 505 q 183 556 173 618 l 164 618 q 176 506 183 415 q 190 324 191 262 l 196 0 z"},"g":{"x_min":0,"x_max":492,"ha":492,"o":"m 300 287 q 300 367 285 408 q 270 450 241 450 q 211 450 198 411 q 184 371 184 281 q 184 197 198 157 q 211 117 240 117 q 271 117 285 159 q 300 201 300 287 z m 293 22 l 293 108 q 275 51 247 23 q 218 -6 180 -6 q 114 -6 79 69 q 44 143 44 284 q 44 431 76 503 q 109 575 175 575 q 218 575 247 547 q 275 519 293 458 l 293 564 l 430 564 l 430 83 q 430 8 424 -36 q 418 -79 406 -105 q 380 -157 336 -183 q 292 -209 228 -209 q 170 -209 125 -186 q 79 -162 54 -119 l 157 -49 q 168 -74 184 -86 q 200 -98 222 -98 q 258 -98 276 -69 q 293 -39 293 22 z"},"j":{"x_min":0,"x_max":264,"ha":264,"o":"m 55 694 q 55 726 77 748 q 99 771 131 771 q 164 771 186 749 q 208 727 208 694 q 208 662 185 640 q 162 618 131 618 q 101 618 78 641 q 55 664 55 694 z m 64 0 l 64 564 l 200 564 l 200 25 q 200 -119 162 -163 q 124 -208 24 -208 l 21 -208 l 21 -88 l 25 -88 q 47 -88 55 -70 q 64 -52 64 0 z"},"i":{"x_min":0,"x_max":264,"ha":264,"o":"m 55 694 q 55 726 77 748 q 99 771 131 771 q 164 771 186 749 q 208 727 208 694 q 208 662 185 640 q 162 618 131 618 q 101 618 78 641 q 55 664 55 694 z m 64 0 l 64 564 l 200 564 l 200 0 z"},"y":{"x_min":0,"x_max":435,"ha":435,"o":"m 100 -197 l 155 16 l 10 564 l 157 564 l 193 358 q 197 336 203 282 q 209 229 215 155 l 224 155 q 233 227 242 285 q 251 344 259 377 l 302 564 l 439 564 l 235 -197 z"},"@":{"x_min":0,"x_max":1000,"ha":1000,"o":"m 570 133 q 543 92 508 73 q 473 53 425 53 q 348 53 307 95 q 267 137 267 219 q 267 336 335 415 q 403 494 503 494 q 542 494 571 478 q 600 462 618 430 l 644 478 l 731 478 l 659 186 q 658 181 657 175 q 656 169 656 166 q 656 149 667 140 q 679 132 702 132 q 721 132 742 142 q 763 151 781 169 q 823 208 844 260 q 866 312 866 375 q 866 492 776 568 q 685 643 542 643 q 473 643 414 626 q 354 610 306 577 q 223 521 178 438 q 134 354 134 255 q 134 105 235 15 q 336 -74 505 -74 q 584 -74 659 -50 q 735 -26 800 19 l 840 -38 q 765 -94 681 -123 q 598 -151 507 -151 q 413 -151 334 -127 q 256 -104 195 -57 q 119 2 82 79 q 44 156 44 254 q 44 335 70 409 q 95 483 145 544 q 217 632 319 678 q 420 723 545 723 q 627 723 700 701 q 772 679 826 638 q 892 587 925 521 q 957 456 957 373 q 957 292 925 224 q 893 156 833 108 q 799 81 759 66 q 718 52 675 52 q 623 52 597 72 q 571 93 570 133 z m 594 342 q 588 381 566 402 q 544 423 509 423 q 453 423 412 362 q 371 302 371 217 q 371 172 391 148 q 411 125 448 125 q 489 125 522 156 q 556 187 568 236 z"},".":{"x_min":0,"x_max":250,"ha":250,"o":"m 48 65 q 48 97 70 119 q 93 142 125 142 q 158 142 180 120 q 202 98 202 65 q 202 33 179 10 q 156 -12 125 -12 q 95 -12 71 11 q 48 35 48 65 z"},"p":{"x_min":0,"x_max":488,"ha":488,"o":"m 192 290 q 192 204 207 162 q 222 120 252 120 q 280 120 294 160 q 308 201 308 283 q 308 373 294 413 q 281 453 251 453 q 222 453 207 411 q 192 370 192 290 z m 62 -197 l 62 564 l 192 564 l 192 446 q 213 516 243 547 q 273 578 318 578 q 384 578 417 506 q 449 434 449 286 q 449 145 414 71 q 378 -4 312 -4 q 273 -4 245 25 q 217 53 199 110 l 199 -197 z"},"X":{"x_min":0,"x_max":491,"ha":491,"o":"m 9 0 l 162 411 l 18 764 l 176 764 l 222 616 q 232 581 240 547 q 247 512 251 477 q 256 516 265 552 q 273 589 287 628 l 334 764 l 485 764 l 339 410 l 492 0 l 337 0 l 276 198 q 267 228 260 261 q 253 295 248 339 q 242 297 235 261 q 228 226 219 197 l 157 0 z"},"*":{"x_min":0,"x_max":500,"ha":500,"o":"m 250 493 l 175 382 l 90 442 l 175 548 l 53 580 l 85 679 l 201 637 l 201 764 l 299 764 l 299 637 l 415 679 l 447 580 l 325 548 l 411 442 l 325 382 z"},"Y":{"x_min":0,"x_max":491,"ha":491,"o":"m 175 0 l 175 312 l 2 764 l 163 764 l 220 564 q 234 517 241 480 q 249 443 253 405 q 258 453 266 494 q 274 535 284 570 l 342 764 l 499 764 l 324 307 l 324 0 z"},"c":{"x_min":0,"x_max":410,"ha":410,"o":"m 398 148 q 382 70 337 29 q 292 -12 222 -12 q 126 -12 81 59 q 35 130 35 281 q 35 439 81 508 q 127 577 232 577 q 304 577 346 537 q 389 497 397 422 l 275 395 q 275 429 263 448 q 250 467 228 467 q 200 467 189 429 q 178 391 178 258 q 178 172 189 138 q 201 105 228 105 q 247 105 259 124 q 271 143 279 185 z"},"!":{"x_min":0,"x_max":292,"ha":292,"o":"m 66 65 q 66 97 88 119 q 111 142 143 142 q 175 142 197 120 q 219 98 219 65 q 219 33 197 10 q 174 -12 143 -12 q 113 -12 89 11 q 66 35 66 65 z m 82 221 l 67 764 l 216 764 l 203 221 z"},"/":{"x_min":0,"x_max":278,"ha":278,"o":"m -49 -93 l 219 779 l 302 779 l 34 -93 z"},"[":{"x_min":0,"x_max":340,"ha":340,"o":"m 91 -124 l 91 819 l 297 819 l 297 719 l 211 719 l 211 -25 l 297 -25 l 297 -124 z"},"6":{"x_min":0,"x_max":500,"ha":500,"o":"m 191 249 q 191 181 206 148 q 221 115 252 115 q 282 115 297 146 q 312 177 312 241 q 312 303 296 335 q 281 367 250 367 q 220 367 206 338 q 191 309 191 249 z m 247 470 q 261 477 276 480 q 290 484 306 484 q 370 484 413 421 q 455 358 455 258 q 455 137 397 63 q 340 -11 247 -11 q 158 -11 104 58 q 51 127 51 245 q 51 322 72 391 q 94 460 146 547 l 255 729 l 411 729 z"},"r":{"x_min":0,"x_max":361,"ha":361,"o":"m 62 1 l 62 564 l 192 564 l 192 424 l 198 424 q 215 498 253 537 q 291 576 347 576 l 353 576 l 353 430 q 347 431 340 431 q 333 431 320 431 q 258 431 229 400 q 199 369 199 303 l 199 1 z"},"2":{"x_min":0,"x_max":500,"ha":500,"o":"m 27 0 l 251 422 q 279 475 287 501 q 296 528 296 554 q 296 583 282 600 q 269 617 246 617 q 219 617 204 593 q 190 568 190 522 l 190 506 l 51 506 l 51 524 q 51 628 102 684 q 152 739 248 739 q 340 739 391 690 q 441 642 441 553 q 441 506 426 459 q 411 413 363 331 l 248 134 l 421 134 l 421 0 z"},"{":{"x_min":0,"x_max":500,"ha":500,"o":"m 431 721 l 431 619 q 427 619 419 620 q 411 620 408 620 q 359 620 342 601 q 324 583 324 522 l 324 405 q 324 333 302 302 q 280 272 223 259 q 280 246 302 216 q 324 186 324 114 l 324 -4 q 324 -64 341 -83 q 358 -101 408 -101 q 411 -101 419 -101 q 427 -100 431 -100 l 431 -202 q 424 -202 412 -203 q 400 -203 394 -203 q 345 -203 312 -197 q 280 -191 257 -179 q 229 -163 218 -135 q 206 -106 206 -37 l 206 86 q 206 153 181 181 q 156 209 97 209 q 94 209 87 208 q 81 208 77 208 l 77 310 q 81 310 87 310 q 94 309 97 309 q 156 309 181 337 q 206 366 206 433 l 206 555 q 206 625 218 653 q 229 682 257 698 q 280 710 312 716 q 345 722 394 722 q 400 722 412 722 q 424 721 431 721 z"},"9":{"x_min":0,"x_max":500,"ha":500,"o":"m 314 491 q 314 554 299 584 q 285 614 254 614 q 225 614 209 582 q 194 550 194 489 q 194 423 208 393 q 223 363 254 363 q 284 363 299 395 q 314 426 314 491 z m 258 259 q 245 252 231 249 q 218 246 203 246 q 134 246 93 308 q 51 371 51 475 q 51 596 106 668 q 162 740 253 740 q 347 740 401 672 q 455 604 455 485 q 455 414 436 347 q 417 281 362 181 l 262 0 l 106 0 z"}," ":{"x_min":0,"x_max":250,"ha":250,"o":""},"I":{"x_min":0,"x_max":275,"ha":275,"o":"m 212 0 l 64 0 l 64 764 l 212 764 z"},"H":{"x_min":0,"x_max":539,"ha":539,"o":"m 64 0 l 64 764 l 212 764 l 212 465 l 328 465 l 328 764 l 476 764 l 476 0 l 328 0 l 328 344 l 212 344 l 212 0 z"},"4":{"x_min":0,"x_max":500,"ha":500,"o":"m 265 250 l 265 394 q 265 438 269 487 q 273 536 282 594 q 272 566 260 537 q 249 508 235 478 l 130 250 z m 265 0 l 265 126 l 41 126 l 41 258 l 265 729 l 400 729 l 400 250 l 464 250 l 464 126 l 400 126 l 400 0 z"},"~":{"x_min":0,"x_max":833,"ha":833,"o":"m 747 392 l 747 284 q 696 250 651 233 q 606 217 562 217 q 540 217 517 221 q 495 225 472 232 q 460 236 438 244 q 331 281 275 281 q 233 281 188 262 q 143 244 87 204 l 87 312 q 139 347 187 365 q 234 382 276 382 q 333 382 418 354 l 420 353 q 429 350 447 344 q 522 317 564 317 q 605 317 649 335 q 693 353 747 392 z"},"D":{"x_min":0,"x_max":538,"ha":538,"o":"m 212 119 l 216 119 q 289 119 319 178 q 349 237 349 383 q 349 532 320 589 q 290 647 218 647 l 212 647 z m 64 0 l 64 764 l 213 764 q 367 764 434 679 q 501 595 501 400 q 501 192 435 96 q 369 0 226 0 z"},"^":{"x_min":0,"x_max":1000,"ha":1000,"o":"m 438 713 l 561 713 l 796 439 l 681 439 l 500 620 l 318 439 l 203 439 z"},"0":{"x_min":0,"x_max":500,"ha":500,"o":"m 314 368 q 314 522 300 571 q 286 619 250 619 q 214 619 200 569 q 186 520 186 368 q 186 216 200 166 q 214 116 250 116 q 286 116 300 165 q 314 213 314 368 z m 459 364 q 459 169 408 79 q 358 -12 250 -12 q 142 -12 92 79 q 41 169 41 364 q 41 559 92 650 q 142 741 250 741 q 358 741 408 650 q 459 558 459 364 z"},"F":{"x_min":0,"x_max":428,"ha":428,"o":"m 64 0 l 64 764 l 385 764 l 385 644 l 212 644 l 212 461 l 385 461 l 385 343 l 212 343 l 212 0 z"},"`":{"x_min":0,"x_max":500,"ha":500,"o":"m 109 768 l 234 768 l 319 630 l 258 630 z"},"k":{"x_min":0,"x_max":477,"ha":477,"o":"m 62 0 l 62 764 l 199 764 l 199 297 l 204 297 l 325 564 l 465 564 l 335 303 l 474 0 l 326 0 l 204 286 l 199 286 l 199 0 z"},"u":{"x_min":0,"x_max":486,"ha":486,"o":"m 57 236 l 57 564 l 194 564 l 194 233 q 194 158 205 131 q 216 103 243 103 q 270 103 280 130 q 291 158 291 233 l 291 564 l 428 564 l 428 236 q 428 109 383 49 q 337 -12 243 -12 q 148 -12 103 49 q 57 110 57 236 z"},"]":{"x_min":0,"x_max":340,"ha":340,"o":"m 250 -124 l 44 -124 l 44 -25 l 129 -25 l 129 719 l 44 719 l 44 819 l 250 819 z"},"U":{"x_min":0,"x_max":539,"ha":539,"o":"m 59 251 l 59 764 l 207 764 l 207 250 q 207 168 221 139 q 235 109 269 109 q 304 109 318 139 q 332 169 332 250 l 332 764 l 480 764 l 480 251 q 480 115 428 50 q 377 -15 269 -15 q 161 -15 110 50 q 59 115 59 251 z"},"o":{"x_min":0,"x_max":475,"ha":475,"o":"m 237 103 q 270 103 284 144 q 298 185 298 284 q 298 382 284 424 q 270 466 237 466 q 205 466 190 423 q 176 381 176 284 q 176 187 190 145 q 205 103 237 103 z m 35 282 q 35 431 85 503 q 135 576 237 576 q 340 576 390 503 q 440 431 440 282 q 440 133 390 61 q 340 -11 237 -11 q 135 -11 85 61 q 35 134 35 282 z"},"N":{"x_min":0,"x_max":544,"ha":544,"o":"m 64 0 l 64 764 l 212 764 l 313 400 q 321 373 337 304 q 353 236 375 134 l 385 134 q 367 273 356 380 q 346 487 346 539 l 346 764 l 480 764 l 480 0 l 335 0 l 237 340 q 235 348 230 365 q 188 507 171 613 l 162 613 q 180 475 189 367 q 198 258 198 186 l 198 0 z"},"+":{"x_min":0,"x_max":833,"ha":833,"o":"m 367 596 l 466 596 l 466 347 l 709 347 l 709 250 l 466 250 l 466 0 l 367 0 l 367 250 l 124 250 l 124 347 l 367 347 z"},"G":{"x_min":0,"x_max":544,"ha":544,"o":"m 261 338 l 261 459 l 498 459 l 498 297 q 498 146 438 65 q 379 -15 267 -15 q 153 -15 97 82 q 42 178 42 378 q 42 585 100 682 q 158 780 281 780 q 360 780 409 741 q 457 703 482 620 l 350 574 q 341 617 323 636 q 306 656 278 656 q 232 656 214 596 q 195 537 195 378 q 195 225 213 167 q 231 110 275 110 q 311 110 331 151 q 350 192 350 269 l 350 338 z"},"q":{"x_min":0,"x_max":492,"ha":492,"o":"m 300 290 q 300 370 285 411 q 270 453 241 453 q 211 453 198 413 q 184 373 184 283 q 184 199 198 160 q 211 120 240 120 q 271 120 285 162 q 300 204 300 290 z m 429 -197 l 293 -197 l 293 110 q 275 53 247 25 q 218 -4 180 -4 q 114 -4 78 71 q 43 145 43 286 q 43 434 75 506 q 108 578 174 578 q 219 578 249 547 q 279 516 300 446 l 300 564 l 429 564 z"},"d":{"x_min":0,"x_max":492,"ha":492,"o":"m 293 0 l 293 108 q 275 51 247 23 q 218 -6 180 -6 q 114 -6 79 69 q 44 143 44 284 q 44 431 76 503 q 109 575 175 575 q 218 575 247 547 q 275 519 293 458 l 293 764 l 430 764 l 430 0 z m 300 287 q 300 367 285 408 q 270 450 241 450 q 211 450 198 411 q 184 371 184 281 q 184 197 198 157 q 211 117 240 117 q 271 117 285 159 q 300 201 300 287 z"},"1":{"x_min":0,"x_max":500,"ha":500,"o":"m 191 0 l 191 549 q 170 533 148 520 q 126 507 103 497 l 103 613 q 166 644 209 674 q 253 705 286 741 l 329 741 l 329 0 z"},"5":{"x_min":0,"x_max":500,"ha":500,"o":"m 54 183 l 182 216 q 184 163 197 137 q 211 112 238 112 q 270 112 285 146 q 301 181 301 250 q 301 321 284 354 q 268 386 231 386 q 215 386 202 375 q 189 363 184 344 l 76 344 l 76 729 l 409 729 l 409 605 l 191 605 l 191 459 q 211 481 236 491 q 260 502 289 502 q 365 502 406 441 q 448 381 448 269 q 448 141 390 65 q 332 -10 233 -10 q 155 -10 107 42 q 59 93 54 183 z"}}}
